<svg width="25" height="25" viewBox="0 0 25 25" fill="none" xmlns="http://www.w3.org/2000/svg">
<g clip-path="url(#clip0_133_5149)">
<path fill-rule="evenodd" clip-rule="evenodd" d="M0.656959 3.67196C0.768144 3.5621 0.918152 3.50049 1.07446 3.50049C1.23077 3.50049 1.38077 3.5621 1.49196 3.67196L10.321 12.1C10.3773 12.1502 10.4224 12.2119 10.4533 12.2808C10.4842 12.3497 10.5002 12.4244 10.5002 12.5C10.5002 12.5755 10.4842 12.6502 10.4533 12.7191C10.4224 12.7881 10.3773 12.8497 10.321 12.9L1.52096 21.328C1.4095 21.4372 1.26 21.4988 1.10396 21.5C0.947836 21.4993 0.798177 21.4375 0.686959 21.328C0.630588 21.2777 0.585481 21.2161 0.554596 21.1471C0.523711 21.0782 0.507745 21.0035 0.507745 20.928C0.507745 20.8524 0.523711 20.7777 0.554596 20.7088C0.585481 20.6399 0.630588 20.5782 0.686959 20.528L9.03796 12.499L0.654959 4.46996C0.555019 4.3608 0.499753 4.21807 0.500124 4.07007C0.500494 3.92207 0.556473 3.77962 0.656959 3.67096V3.67196ZM14.657 3.67196C14.7681 3.5621 14.9182 3.50049 15.0745 3.50049C15.2308 3.50049 15.3808 3.5621 15.492 3.67196L24.321 12.1C24.3773 12.1502 24.4224 12.2119 24.4533 12.2808C24.4842 12.3497 24.5002 12.4244 24.5002 12.5C24.5002 12.5755 24.4842 12.6502 24.4533 12.7191C24.4224 12.7881 24.3773 12.8497 24.321 12.9L15.521 21.328C15.4095 21.4372 15.26 21.4988 15.104 21.5C14.9478 21.4993 14.7982 21.4375 14.687 21.328C14.6306 21.2777 14.5855 21.2161 14.5546 21.1471C14.5237 21.0782 14.5077 21.0035 14.5077 20.928C14.5077 20.8524 14.5237 20.7777 14.5546 20.7088C14.5855 20.6399 14.6306 20.5782 14.687 20.528L23.038 12.499L14.655 4.46996C14.555 4.3608 14.4998 4.21807 14.5001 4.07007C14.5005 3.92207 14.5565 3.77962 14.657 3.67096V3.67196Z" fill="black"/>
</g>
<defs>
<clipPath id="clip0_133_5149">
<rect width="24" height="24" fill="white" transform="translate(0.5 0.5)"/>
</clipPath>
</defs>
</svg>
