<svg width="41" height="31" viewBox="0 0 41 31" fill="none" xmlns="http://www.w3.org/2000/svg">
<g clip-path="url(#clip0_11_543)">
<mask id="mask0_11_543" style="mask-type:alpha" maskUnits="userSpaceOnUse" x="0" y="7" width="37" height="23">
<path d="M0.709473 7.03223H36.6586V29.6797H0.709473V7.03223Z" fill="white"/>
</mask>
<g mask="url(#mask0_11_543)">
<path fill-rule="evenodd" clip-rule="evenodd" d="M0.739981 21.7922C1.91456 23.5596 3.36066 25.2518 5.05693 26.5693C5.90608 27.2308 6.82744 27.7998 7.81846 28.2066C8.811 28.5946 9.8788 28.8325 10.9334 29.0273C13.0532 29.401 15.2361 29.429 17.3483 29.0359C19.4646 28.6622 21.4878 27.8751 23.3778 26.8576C25.2632 25.8188 27.0286 24.5629 28.5713 23.0629C30.1263 21.5756 31.4534 19.862 32.6625 18.0747C33.8366 16.2661 35.0335 14.434 35.8568 12.4596C36.0459 11.9634 36.2244 11.4554 36.2803 10.9444C36.3052 10.6901 36.3022 10.4369 36.2396 10.2061C36.1761 9.97015 36.0403 9.80184 35.8481 9.58472C35.5552 9.19574 35.0513 8.9293 34.609 8.63642C34.1513 8.35371 33.683 8.08218 33.2117 7.82083L33.2096 7.82032L33.1878 7.80659C32.6707 7.46591 31.9603 7.33981 31.3003 7.35811C30.9708 7.37235 30.6129 7.39727 30.3174 7.4954C30.0065 7.60705 29.7152 7.76735 29.4546 7.97032C28.3837 8.79659 27.5488 9.94066 26.8207 11.0949L26.8257 11.0847L23.0885 18.6539C21.6159 21.0905 19.4173 23.0674 16.821 24.2085C15.5186 24.7715 14.1286 25.1052 12.7125 25.1949C11.3019 25.2622 9.88822 25.173 8.49727 24.929C5.73574 24.4291 3.01134 23.3822 0.739981 21.7932V21.7922ZM0.709473 21.7581C3.0736 23.3035 5.73065 24.3455 8.51507 24.8191C9.89812 25.0505 11.3051 25.1283 12.7044 25.0495C14.1007 24.951 15.4693 24.6116 16.7498 24.0462C19.2973 22.9093 21.4583 20.9181 22.8769 18.5435L26.5674 10.9581L26.573 10.9479C27.3154 9.75913 28.1381 8.60489 29.2679 7.71964C29.5546 7.49391 29.8756 7.31571 30.2188 7.19184C30.5854 7.07184 30.9296 7.05354 31.2917 7.03371C32.0081 7.01845 32.7403 7.11659 33.3947 7.53964L33.3718 7.52489C33.8514 7.7857 34.3246 8.05798 34.791 8.3415C35.2451 8.64354 35.7449 8.88405 36.1237 9.35845C36.292 9.54201 36.5112 9.80845 36.5864 10.1044C36.6683 10.3993 36.6693 10.6962 36.6439 10.981C36.5829 11.552 36.3998 12.0803 36.2081 12.5964C35.3707 14.641 34.1869 16.4746 33.0164 18.3101C31.8113 20.1244 30.4756 21.8761 28.8871 23.3893C27.3154 24.9183 25.5134 26.2012 23.5974 27.2578C19.7747 29.4107 15.1746 30.2013 10.8774 29.3323C9.80405 29.1178 8.7449 28.8676 7.71778 28.4512C6.7049 28.019 5.77235 27.424 4.92117 26.7396C3.23256 25.3426 1.80638 23.6559 0.709473 21.7586" fill="#231F20"/>
</g>
<mask id="mask1_11_543" style="mask-type:alpha" maskUnits="userSpaceOnUse" x="33" y="0" width="8" height="8">
<path d="M33.019 0H40.4662V7.64237H33.019V0Z" fill="white"/>
</mask>
<g mask="url(#mask1_11_543)">
<path fill-rule="evenodd" clip-rule="evenodd" d="M33.024 7.60518C33.6784 6.75857 34.3328 5.92569 34.8942 5.03586C35.4759 4.17196 35.9289 3.21908 36.4689 2.28196C36.7343 1.81518 37.0028 1.34942 37.3242 0.908065C37.4849 0.688404 37.6547 0.471794 37.8723 0.284167C38.0828 0.080777 38.4133 -0.0199009 38.6904 0.00196351C39.2701 0.0172177 39.7979 0.368065 40.0786 0.840947C40.3588 1.31993 40.4559 1.86908 40.466 2.40196C40.4662 2.40499 40.4658 2.40802 40.4648 2.41088C40.4638 2.41373 40.4623 2.41636 40.4602 2.4186C40.4582 2.42083 40.4557 2.42263 40.4529 2.42388C40.4502 2.42512 40.4472 2.4258 40.4442 2.42586C40.4384 2.42587 40.4328 2.42367 40.4285 2.41971C40.4243 2.41574 40.4217 2.41031 40.4213 2.40451C40.3806 1.87722 40.251 1.34739 39.9637 0.916201C39.6764 0.490099 39.1867 0.214506 38.6884 0.230777C38.1677 0.19315 37.8657 0.654845 37.5672 1.0784C37.2789 1.51315 37.0333 1.98349 36.7913 2.45484C36.3098 3.38688 35.9335 4.41756 35.272 5.29518C34.6242 6.16162 33.9027 6.9701 33.056 7.63823C33.0536 7.64001 33.0508 7.64129 33.0479 7.64199C33.045 7.6427 33.0419 7.64282 33.039 7.64235C33.036 7.64188 33.0331 7.64082 33.0306 7.63924C33.028 7.63766 33.0258 7.63559 33.024 7.63315C33.0169 7.62501 33.0179 7.61332 33.024 7.60518Z" fill="#231F20"/>
</g>
<path fill-rule="evenodd" clip-rule="evenodd" d="M35.6023 9.14343C35.6104 8.34258 35.7284 7.55903 35.8458 6.77547C35.9755 5.99394 36.1936 5.2297 36.4011 4.46547C36.6036 3.69873 36.8317 2.93898 37.085 2.1875C37.2172 1.81326 37.3595 1.44055 37.5278 1.07903C37.7119 0.740381 37.8548 0.312754 38.258 0.145466C38.2702 0.141907 38.2829 0.146483 38.2875 0.158178C38.2911 0.168347 38.2875 0.181059 38.2763 0.185635L38.2661 0.191229C37.9306 0.358008 37.8014 0.788686 37.6539 1.13292C37.5167 1.49903 37.4048 1.87631 37.3031 2.25614C37.0956 3.01462 36.9135 3.77979 36.757 4.55038C36.5978 5.32225 36.4819 6.10174 36.2943 6.86699C36.0955 7.63021 35.9145 8.3975 35.647 9.15055C35.6461 9.15349 35.6446 9.15621 35.6426 9.15856C35.6406 9.1609 35.6381 9.16282 35.6354 9.1642C35.6326 9.16557 35.6296 9.16638 35.6266 9.16657C35.6235 9.16676 35.6204 9.16633 35.6175 9.1653C35.6084 9.16275 35.6023 9.15259 35.6023 9.14343ZM25.9656 16.9485C26.5158 15.3936 27.1748 13.8758 27.9721 12.42C28.3763 11.696 28.7928 10.9658 29.3577 10.3338C29.9287 9.74445 30.6355 9.10479 31.5131 9.07174C31.5258 9.07072 31.536 9.08089 31.537 9.0936C31.537 9.10377 31.5284 9.11292 31.5192 9.11648C30.7478 9.40225 30.2073 10.0099 29.7055 10.6307C29.2158 11.2663 28.7292 11.9167 28.2884 12.6056C27.4341 13.9978 26.6785 15.4633 26.0078 16.9648C26.0068 16.9676 26.0053 16.9702 26.0032 16.9725C26.0012 16.9747 25.9987 16.9765 25.9959 16.9777C25.9932 16.9789 25.9902 16.9796 25.9872 16.9796C25.9842 16.9797 25.9812 16.9791 25.9784 16.978C25.973 16.9755 25.9687 16.9712 25.9663 16.9657C25.964 16.9603 25.9637 16.9541 25.9656 16.9485Z" fill="#231F20"/>
</g>
<defs>
<clipPath id="clip0_11_543">
<rect width="40" height="31" fill="white" transform="translate(0.709473)"/>
</clipPath>
</defs>
</svg>
