<svg width="41" height="31" viewBox="0 0 41 31" fill="none" xmlns="http://www.w3.org/2000/svg">
<path fill-rule="evenodd" clip-rule="evenodd" d="M23.713 21.9299L17.1465 12.8999L24.103 21.6352C24.183 21.7345 24.1617 21.8831 24.0552 21.967C23.9491 22.0503 23.7987 22.0371 23.7191 21.9383C23.7168 21.9357 23.7148 21.9329 23.713 21.9299Z" fill="#010202"/>
<path d="M23.7566 21.573C24.12 22.0371 24.4548 26.1127 24.4548 26.1127C24.4548 26.1127 26.8374 23.418 27.3748 19.6394C27.9113 15.8607 27.1792 15.3555 26.5435 13.4364C25.9079 11.5173 23.2261 9.04318 21.8539 8.36377C20.8644 7.87406 17.6957 6.76053 15.9792 6.16891C15.3609 5.95715 14.664 6.30656 14.4444 6.9348C13.4253 9.8545 13.2318 12.9776 14.0722 15.8527C14.5709 17.5574 15.4283 19.1677 16.8948 19.9566C16.8948 19.9566 20.3105 21.6595 22.5848 21.2289C24.8583 20.7983 24.44 25.1377 24.44 25.1377" stroke="#010202" stroke-width="0.5" stroke-linecap="round" stroke-linejoin="round"/>
<path fill-rule="evenodd" clip-rule="evenodd" d="M21.1877 29.8626L19.4425 30.1679L17.8199 29.4479L16.0538 29.3204L14.6482 28.2272L12.963 27.6744L11.8564 26.2715L10.3508 25.326L9.60686 23.6954L8.36773 22.4116L8.03034 20.6469L7.13034 19.0997L7.2186 17.305L6.70947 15.584L7.21817 13.8629L7.13034 12.0682L8.03034 10.5206L8.36773 8.75677L9.60686 7.47294L10.3503 5.84191L11.8564 4.89603L12.963 3.49309L14.6482 2.94074L16.0538 1.8475L17.8199 1.72L19.4425 1L21.1877 1.30529L22.933 1L24.5556 1.72L26.3216 1.8475L27.7273 2.94074L29.4125 3.49353L30.519 4.89647L32.0247 5.84191L32.7686 7.4725L34.0077 8.75632L34.3451 10.521L35.2451 12.0682L35.1569 13.8629L35.666 15.584L35.1573 17.305L35.2451 19.0997L34.3451 20.6474L34.0077 22.4112L32.7686 23.695L32.0251 25.326L30.519 26.2719L29.4125 27.6749L27.7273 28.2272L26.3216 29.3204L24.5556 29.4479L22.933 30.1679L21.1877 29.8626Z" stroke="black" stroke-width="0.5"/>
</svg>
